# xmcd
#
# Track frame offsets:
#	150
#	11617
#	22613
#	34134
#	47811
#	60284
#	70690
#	83031
#	94544
#	106247
#	119149
#	130852
#	141765
#	151278
#	162570
#	173388
#	184468
#	194051
#	204823
#	215624
#
# Disc length: 3030 seconds
#
# Revision: 0
# Processed by: cddbd v1.5.2PL0 Copyright (c) Steve Scherf et al.
# Submitted via: EZCDAudioConverter 1.0.8.1
#
DISCID=0b0bd414
DTITLE=JIM REEVES - FOUR WALLS: THE LEGEND BEGINS
DYEAR=1991
DGENRE=Country
TTITLE0=WAGON LOAD OF LOVE
TTITLE1=MEXICAN JOE
TTITLE2=THEN I'LL STOP LOVING YOU
TTITLE3=THE WILDER YOUR HEART BEATS THE SWEETER YOU LOVE
TTITLE4=GIVE ME ONE MORE KISS
TTITLE5=MY RAMBLING HEART
TTITLE6=BIMBO
TTITLE7=YONDER COMES A SUCKER
TTITLE8=MY LIPS ARE SEALED
TTITLE9=ACCORDING TO MY HEART
TTITLE10=I'VE GOT JUST THE THING FOR YOU
TTITLE11=AM I LOSING YOU
TTITLE12=LOOK BEHIND YOU (I'LL BE THERE)
TTITLE13=FOUR WALLS
TTITLE14=THE GODS WERE ANGRY WITH ME
TTITLE15=I KNOW (AND YOU KNOW)
TTITLE16=I HEARD A HEART BREAK LAST NIGHT
TTITLE17=I GET THE BLUES WHEN IT RAINS
TTITLE18=ANNA MARIE
TTITLE19=I LOVE YOU MORE
EXTD=
EXTT0=
EXTT1=
EXTT2=
EXTT3=
EXTT4=
EXTT5=
EXTT6=
EXTT7=
EXTT8=
EXTT9=
EXTT10=
EXTT11=
EXTT12=
EXTT13=
EXTT14=
EXTT15=
EXTT16=
EXTT17=
EXTT18=
EXTT19=
PLAYORDER=
